<?xml version="1.0" encoding="utf-8"?>
<svg id="master-artboard" viewBox="0 0 859.1591796875 894.3668823242188" version="1.1" xmlns="http://www.w3.org/2000/svg" x="0px" y="0px" style="enable-background:new 0 0 1400 980;" width="859.1591796875px" height="894.3668823242188px"><rect id="ee-background" x="0" y="0" width="859.1591796875" height="894.3668823242188" style="fill: white; fill-opacity: 0; pointer-events: none;"/><g transform="matrix(139.06851196289062, 0, 0, 139.06851196289062, 152.86407470703125, 427.1587333679199)"><path d="M2.85723 0.364749C2.82472 0.411852 2.80736 0.467762 2.80748 0.524999C2.80748 0.572499 2.81998 0.617499 2.83998 0.657499H3.33998C3.36717 0.60678 3.3782 0.548964 3.3716 0.491799C3.365 0.434633 3.34109 0.380851 3.30307 0.337659C3.26504 0.294466 3.21472 0.263929 3.15886 0.250138C3.10299 0.236347 3.04424 0.239962 2.99048 0.260499C3.00116 0.26859 3.00984 0.279024 3.01585 0.290999C3.02186 0.302973 3.02504 0.316167 3.02514 0.329563C3.02524 0.34296 3.02227 0.356202 3.01645 0.368268C3.01063 0.380334 3.00211 0.390901 2.99156 0.399156C2.98101 0.407411 2.9687 0.413134 2.95559 0.415881C2.94248 0.418629 2.92891 0.418329 2.91593 0.415005C2.90295 0.411681 2.89091 0.40542 2.88073 0.396707C2.87056 0.387994 2.86252 0.37706 2.85723 0.364749ZM1.19749 0.524999C1.1976 0.478203 1.18608 0.432111 1.16396 0.390873C1.14184 0.349635 1.10981 0.314544 1.07076 0.288758C1.03171 0.262971 0.986862 0.2473 0.94025 0.243152C0.893637 0.239005 0.846725 0.246512 0.803735 0.264999C0.817025 0.276795 0.826397 0.292368 0.830596 0.309634C0.834795 0.3269 0.833623 0.345037 0.827234 0.361619C0.820846 0.3782 0.809548 0.392437 0.794849 0.402423C0.780151 0.412409 0.762754 0.417669 0.744985 0.417499C0.730761 0.417515 0.716747 0.414063 0.704157 0.407441C0.691568 0.40082 0.680782 0.391229 0.672735 0.379499C0.647575 0.421234 0.633639 0.468767 0.632281 0.51748C0.630923 0.566192 0.64219 0.614428 0.664985 0.657499H1.16499C1.18499 0.617499 1.19749 0.572499 1.19749 0.524999ZM1.99823 1.5C2.16823 1.5 2.31573 1.41375 2.40573 1.28175C2.48573 1.1625 2.40073 0.999999 2.25823 0.999999H1.74073C1.59823 0.999999 1.51323 1.1625 1.59323 1.28175C1.68073 1.41375 1.83073 1.5 1.99823 1.5ZM2.00048 1.7935C1.73801 1.79447 1.47924 1.73158 1.24649 1.61025C1.23034 1.60139 1.21168 1.59823 1.19352 1.60126C1.17536 1.6043 1.15875 1.61336 1.14636 1.62699C1.13398 1.64061 1.12654 1.65801 1.12525 1.67638C1.12395 1.69475 1.12888 1.71302 1.13924 1.72825C1.23184 1.87268 1.35922 1.99155 1.50969 2.07397C1.66016 2.1564 1.82892 2.19973 2.00048 2.2C2.17205 2.19973 2.34081 2.1564 2.49128 2.07397C2.64175 1.99155 2.76913 1.87268 2.86173 1.72825C2.90673 1.658 2.82923 1.57275 2.75423 1.61025C2.52199 1.73268 2.26302 1.79564 2.00048 1.7935Z" fill="white"/></g><g transform="matrix(122.49999237060547, 0, 0, 122.49999237060547, -60.42024230957031, -58.59106720014279)"><path d="M6.27674 1.1815C6.33824 1.319 6.44874 1.4265 6.58624 1.4815C6.77825 1.56002 6.94176 1.69523 7.05494 1.86907C7.16813 2.04292 7.22562 2.24714 7.21974 2.4545C7.21463 2.69752 7.12317 2.93077 6.96174 3.1125C6.8801 3.2044 6.82254 3.31513 6.79424 3.43475C7.00984 3.51042 7.1953 3.65355 7.32314 3.84293C7.45097 4.03231 7.51437 4.25784 7.50394 4.48609C7.4935 4.71433 7.40978 4.93314 7.26519 5.11005C7.1206 5.28697 6.92284 5.41258 6.70124 5.46825C6.46625 6.845 5.33974 7.75 4.00124 7.75C2.66249 7.75 1.53625 6.8445 1.30125 5.4675C1.08057 5.41154 0.883697 5.28618 0.739626 5.1099C0.595554 4.93363 0.511899 4.71574 0.500979 4.48834C0.49006 4.26094 0.552454 4.03604 0.678973 3.84677C0.805491 3.6575 0.989446 3.51386 1.20375 3.437L1.18925 3.0075C1.14525 1.9235 1.901 0.998003 2.92099 0.792503C3.11591 0.612 3.36925 0.507645 3.63474 0.498503C3.87299 0.491003 4.09374 0.561003 4.27799 0.683503C4.38849 0.758503 4.53349 0.758503 4.64399 0.683503C4.82799 0.561003 5.0515 0.491003 5.28974 0.498503C5.73175 0.513503 6.10975 0.791253 6.27674 1.1815ZM1.69 3.01825L1.7105 3.62275C1.71267 3.68513 1.69142 3.74607 1.65094 3.79358C1.61046 3.84109 1.55368 3.87174 1.49175 3.8795C1.35203 3.89701 1.22395 3.96629 1.13284 4.07365C1.04172 4.18101 0.994179 4.31863 0.999612 4.45934C1.00505 4.60005 1.06306 4.7336 1.16218 4.83361C1.26131 4.93362 1.39434 4.99282 1.535 4.9995C1.59457 5.00232 1.65118 5.02635 1.69459 5.06724C1.73801 5.10813 1.76537 5.1632 1.77175 5.2225C1.903 6.448 2.85249 7.25 4.00124 7.25C5.14999 7.25 6.09949 6.448 6.23074 5.2225C6.23714 5.16308 6.26461 5.10791 6.30818 5.06701C6.35175 5.0261 6.40854 5.00215 6.46824 4.9995C6.60972 4.99314 6.7436 4.93364 6.84312 4.83289C6.94265 4.73214 7.00052 4.59755 7.00516 4.456C7.0098 4.31446 6.96087 4.17637 6.86816 4.06932C6.77544 3.96226 6.64575 3.89412 6.50499 3.8785C6.4418 3.87158 6.38362 3.84084 6.34229 3.79254C6.30095 3.74424 6.27957 3.68201 6.28249 3.6185L6.30574 3.108C6.21281 3.03914 6.10016 3.00205 5.98449 3.00225H4.71499C4.45668 3.00176 4.20206 2.9409 3.97144 2.82453C3.74083 2.70816 3.5406 2.5395 3.38674 2.332C3.38023 2.3225 3.37073 2.31546 3.35975 2.312H3.32774C3.31615 2.31488 3.3059 2.32168 3.29875 2.33125C3.29159 2.34082 3.28797 2.35257 3.2885 2.3645V2.797C3.28876 2.85087 3.26774 2.90267 3.23 2.94111C3.19226 2.97955 3.14086 3.00153 3.08699 3.00225C2.65499 3.00225 2.28675 2.72725 2.1345 2.342C2.13073 2.33137 2.12303 2.32259 2.11298 2.31747C2.10294 2.31236 2.09131 2.31129 2.08049 2.3145C2.07163 2.31653 2.06358 2.3212 2.05743 2.3279C2.05127 2.33459 2.04728 2.343 2.046 2.352C2.00675 2.5845 1.8985 2.7995 1.739 2.96475C1.722 2.98225 1.7055 3.00025 1.69 3.01825Z" fill="white"/></g><g transform="matrix(129.8419647216797, 0, 0, 129.8419647216797, 171.16458129882812, 304.14985275268555)"><path d="M0.402009 0.640747C0.532259 0.594497 0.719009 0.559247 0.965759 0.582497C0.982108 0.58404 0.998602 0.582348 1.0143 0.577516C1.02999 0.572685 1.04458 0.56481 1.05724 0.55434C1.06989 0.54387 1.08035 0.531011 1.08804 0.516497C1.09572 0.501982 1.10047 0.486097 1.10201 0.469747C1.10355 0.453397 1.10186 0.436904 1.09703 0.421209C1.0922 0.405513 1.08432 0.390923 1.07385 0.378271C1.06338 0.365619 1.05052 0.355153 1.03601 0.347471C1.02149 0.339788 1.00561 0.33504 0.989259 0.333497C0.706009 0.306997 0.482759 0.346747 0.318009 0.405247C0.302546 0.410763 0.288321 0.41927 0.276145 0.430283C0.26397 0.441296 0.254083 0.4546 0.247049 0.469434C0.232843 0.499393 0.23112 0.533768 0.242259 0.564997C0.253398 0.596226 0.276487 0.621752 0.306446 0.635957C0.336405 0.650163 0.37078 0.651886 0.402009 0.640747ZM3.54451 0.405247C3.37951 0.346747 3.15651 0.306997 2.87326 0.333497C2.85691 0.33504 2.84102 0.339788 2.82651 0.347471C2.81199 0.355153 2.79914 0.365619 2.78867 0.378271C2.7782 0.390923 2.77032 0.405513 2.76549 0.421209C2.76066 0.436904 2.75897 0.453397 2.76051 0.469747C2.76205 0.486097 2.7668 0.501982 2.77448 0.516497C2.78216 0.531011 2.79263 0.54387 2.80528 0.55434C2.81793 0.56481 2.83252 0.572685 2.84822 0.577516C2.86392 0.582348 2.88041 0.58404 2.89676 0.582497C3.14351 0.559247 3.33026 0.594497 3.46051 0.640747C3.49174 0.651886 3.52611 0.650163 3.55607 0.635957C3.58603 0.621752 3.60912 0.596226 3.62026 0.564997C3.6314 0.533768 3.62967 0.499393 3.61547 0.469434C3.60126 0.439475 3.57574 0.416386 3.54451 0.405247ZM0.800009 0.882497C0.437509 0.882497 0.132509 1.1325 0.0475089 1.4675C0.0225089 1.5625 0.097509 1.655 0.197509 1.655H0.437009C0.417281 1.58156 0.414692 1.50457 0.429443 1.42998C0.444194 1.35538 0.47589 1.28518 0.522084 1.22477C0.568278 1.16437 0.627734 1.1154 0.695862 1.08163C0.763991 1.04785 0.838969 1.03019 0.915009 1.03C0.99107 1.03015 1.06608 1.04779 1.13424 1.08154C1.2024 1.1153 1.26189 1.16427 1.30811 1.22468C1.35433 1.28508 1.38605 1.3553 1.40081 1.42992C1.41558 1.50453 1.41299 1.58154 1.39326 1.655H1.43251C1.51251 1.655 1.57501 1.5825 1.56001 1.505C1.52508 1.32925 1.43019 1.17109 1.29157 1.05755C1.15295 0.944004 0.979195 0.882129 0.800009 0.882497ZM3.20501 0.882497C3.56751 0.882497 3.87251 1.1325 3.95751 1.4675C3.98251 1.5625 3.90751 1.655 3.80751 1.655H3.56801C3.58774 1.58156 3.59033 1.50457 3.57557 1.42998C3.56082 1.35538 3.52913 1.28518 3.48293 1.22477C3.43674 1.16437 3.37728 1.1154 3.30915 1.08163C3.24103 1.04785 3.16605 1.03019 3.09001 1.03C3.01395 1.03015 2.93894 1.04779 2.87078 1.08154C2.80262 1.1153 2.74313 1.16427 2.69691 1.22468C2.65069 1.28508 2.61897 1.3553 2.6042 1.42992C2.58944 1.50453 2.59203 1.58154 2.61176 1.655H2.57251C2.49251 1.655 2.43001 1.5825 2.44501 1.505C2.47994 1.32925 2.57483 1.17109 2.71345 1.05755C2.85207 0.944004 3.02582 0.882129 3.20501 0.882497Z" fill="white"/></g></svg>